Results
version=1
nRows=12
nColumns=24
inDegrees=yes
endheader
time	pelvis_tilt	pelvis_list	pelvis_rotation	pelvis_tx	pelvis_ty	pelvis_tz	hip_flexion_r	hip_adduction_r	hip_rotation_r	knee_angle_r	ankle_angle_r	subtalar_angle_r	mtp_angle_r	hip_flexion_l	hip_adduction_l	hip_rotation_l	knee_angle_l	ankle_angle_l	subtalar_angle_l	mtp_angle_l	lumbar_extension	lumbar_bending	lumbar_rotation
      0.76633333	     -6.68312818	     -4.13511763	      6.22522562	     -0.34932965	      0.90423672	      0.32055029	     18.59799607	      8.24557378	     -3.79809590	    -20.70887201	      8.35695167	     -5.93578818	      4.70226079	     17.90083511	     -7.95596367	     -3.47917663	    -66.54278747	     -2.39832784	     -8.20504419	      3.68639653	      3.57440994	      5.73488515	     -4.16391393
      0.77050000	     -6.73693840	     -3.97135730	      6.17344953	     -0.34416430	      0.90533451	      0.32065201	     18.03643415	      8.14184365	     -3.63772257	    -20.24397293	      8.40061997	     -5.88006768	      4.68347994	     18.58589849	     -7.67037728	     -3.64259397	    -66.21001251	     -1.78385037	     -8.37437703	      3.63037289	      3.59253551	      5.55784104	     -3.96827902
      0.77466667	     -6.77899222	     -3.80130804	      6.11106149	     -0.33896338	      0.90643682	      0.32075105	     17.45239849	      8.02842448	     -3.49836853	    -19.76276159	      8.44147309	     -5.81160652	      4.67301216	     19.22998576	     -7.38598650	     -3.83296840	    -65.79257504	     -1.20759145	     -8.52327743	      3.60349922	      3.64080210	      5.38378516	     -3.82912674
      0.77883333	     -6.79603093	     -3.61559367	      6.01992496	     -0.33382846	      0.90754536	      0.32090174	     16.85021209	      7.91214934	     -3.29894133	    -19.29409099	      8.47333335	     -5.74750116	      4.65197021	     19.82491241	     -7.08908774	     -4.03747156	    -65.30911960	     -0.61995424	     -8.61665474	      3.54672509	      3.56861321	      5.18665464	     -3.52160964
      0.78300000	     -6.78479704	     -3.43626773	      5.92171873	     -0.32862450	      0.90868443	      0.32106058	     16.19479049	      7.80374185	     -3.12171845	    -18.78027713	      8.51909500	     -5.68608789	      4.62021599	     20.36099052	     -6.82039173	     -4.27896856	    -64.74467075	     -0.10539496	     -8.66882965	      3.45946402	      3.53194033	      5.00004597	     -3.15894294
      0.78716667	     -6.80623125	     -3.24753618	      5.81682209	     -0.32347554	      0.90972445	      0.32120128	     15.59343185	      7.67300357	     -2.96651128	    -18.29794873	      8.52204442	     -5.58988018	      4.60799796	     20.92160841	     -6.52799568	     -4.51533405	    -64.12752320	      0.42980882	     -8.74933170	      3.43374785	      3.52296852	      4.80001812	     -3.03493039
      0.79133333	     -6.74813145	     -3.05258879	      5.68943786	     -0.31830407	      0.91086716	      0.32140267	     14.88576053	      7.55417846	     -2.76227746	    -17.77597760	      8.57086203	     -5.51369057	      4.57968504	     21.36234425	     -6.25697520	     -4.78333510	    -63.42700221	      0.90378534	     -8.72531897	      3.36368630	      3.38918683	      4.60561016	     -2.66009297
      0.79550000	     -6.74975727	     -2.84982325	      5.55482003	     -0.31316871	      0.91186441	      0.32159607	     14.26179943	      7.41110046	     -2.59139628	    -17.28545600	      8.56386374	     -5.41186673	      4.56808020	     21.85786624	     -5.96896703	     -5.05921989	    -62.68091411	      1.38985131	     -8.74263243	      3.34217929	      3.34643144	      4.38333001	     -2.51680611
      0.79966667	     -6.65342233	     -2.65124677	      5.40228041	     -0.30800382	      0.91298658	      0.32183113	     13.51130859	      7.29029353	     -2.37999487	    -16.75334726	      8.61468295	     -5.33356339	      4.54494043	     22.21303305	     -5.71170921	     -5.35733921	    -61.85074311	      1.81072323	     -8.65380901	      3.28993611	      3.16861498	      4.20048897	     -2.12804593
      0.80383333	     -6.59162440	     -2.44583512	      5.23593645	     -0.30286472	      0.91399811	      0.32207946	     12.81080292	      7.15289467	     -2.17858785	    -16.24075042	      8.62795204	     -5.24315109	      4.52318196	     22.59206544	     -5.44847401	     -5.67208728	    -60.97307205	      2.22986844	     -8.57497338	      3.24495018	      3.03833071	      3.99260007	     -1.83136404
      0.80800000	     -6.52747428	     -2.22835239	      5.04999698	     -0.29774491	      0.91496992	      0.32234299	     12.12084730	      6.99902932	     -1.97969107	    -15.75264024	      8.62329685	     -5.14376373	      4.50797995	     22.94355601	     -5.17762912	     -6.00504732	    -60.02969729	      2.62740410	     -8.47711972	      3.21758250	      2.90269315	      3.78265266	     -1.59769348
      0.81216667	     -6.42881633	     -2.04189417	      4.87121715	     -0.29261163	      0.91592226	      0.32263816	     11.37182887	      6.88241206	     -1.77287264	    -15.20807199	      8.65657680	     -5.04787397	      4.48914017	     23.25521189	     -4.95638407	     -6.33410199	    -59.05317940	      2.98045488	     -8.33738280	      3.18008197	      2.72711256	      3.58398634	     -1.24287901
